# xmcd
#
# Track frame offsets:
#	150
#	18418
#	38460
#	70314
#	90607
#	126317
#	157499
#	188267
#	206219
#	227344
#	249165
#	267763
#	288604
#	306975
#	328383
#
# Disc length: 4691 seconds
#
# Revision: 0
# Processed by: cddbd v1.5.1PL0 Copyright (c) Steve Scherf et al.
# Submitted via: EasyCDDAExtractor 8.1.2.3
#
DISCID=d512510f
DTITLE=Barry White - Love Songs
DYEAR=2003
DGENRE=Easy Listening
TTITLE0=Love's Theme
TTITLE1=Can't Get Enough of Your Love, Babe
TTITLE2=I'm Gonna Love Just a Little More, Baby
TTITLE3=You're the First, The Last, My Everything
TTITLE4=Never Never Gonna Give You Up
TTITLE5=Just The Way You Are
TTITLE6=It's Ecstasy When You Lay Down Next to Me
TTITLE7=Practice What You Preach
TTITLE8=Walking in the Rain (With the One I Love)
TTITLE9=Dark and Lovely (You Over There)
TTITLE10=It May Be Winter Outside (But in My Heart It's Spring)
TTITLE11=Don't Make Me Wait Too Long
TTITLE12=I'll Do For You Anything You Want Me To
TTITLE13=Love Serenade
TTITLE14=Midnight And You
EXTD=
EXTT0=
EXTT1=
EXTT2=
EXTT3=
EXTT4=
EXTT5=
EXTT6=
EXTT7=
EXTT8=
EXTT9=
EXTT10=
EXTT11=
EXTT12=
EXTT13=
EXTT14=
PLAYORDER=
